<svg xmlns="http://www.w3.org/2000/svg" viewBox="0 0 36.82 45.88"><defs><style>.cls-1,.cls-3{fill:#333;}.cls-1,.cls-2{opacity:0.3;}.cls-4,.cls-5{fill:#fff;stroke:#c2c2c2;stroke-width:0.5px;}.cls-4{stroke-miterlimit:10;}.cls-5,.cls-6,.cls-7{stroke-linecap:round;stroke-linejoin:round;}.cls-6,.cls-7{fill:none;stroke-width:2px;}.cls-6{stroke:#1da195;}.cls-7{stroke:#000;}.cls-7,.cls-9{opacity:0.2;}.cls-8,.cls-9{font-size:12px;font-family:GothamRounded-Bold, Gotham Rounded;font-weight:700;letter-spacing:0.02em;}.cls-8{fill:#1da195;}</style></defs><title>1Asset 7</title><g id="Layer_2" data-name="Layer 2"><g id="Layer_1-2" data-name="Layer 1"><path class="cls-1" d="M36.19,15.26,25.6,4.67a1.43,1.43,0,0,0-1-.42,1.46,1.46,0,0,0-.55.11,1.43,1.43,0,0,0-.9,1.34V16.28a1.45,1.45,0,0,0,1.45,1.45H35.17a1.45,1.45,0,0,0,1-2.47Z"/><g class="cls-2"><path class="cls-3" d="M23.09,21.19c-1.29,0-3.34-2.06-3.34-3.35V4.61H5.22a2,2,0,0,0-2,2V43.42a2,2,0,0,0,2,2H34.36a2,2,0,0,0,2-2V21.19Z"/><path class="cls-3" d="M34.36,45.88H5.22a2.47,2.47,0,0,1-2.47-2.46V6.58A2.48,2.48,0,0,1,5.22,4.11H19.75a.51.51,0,0,1,.5.5V17.84a4,4,0,0,0,2.84,2.85H36.32a.5.5,0,0,1,.5.5V43.42A2.46,2.46,0,0,1,34.36,45.88ZM5.22,5.11A1.47,1.47,0,0,0,3.75,6.58V43.42a1.46,1.46,0,0,0,1.47,1.46H34.36a1.46,1.46,0,0,0,1.46-1.46V21.69H23.09c-1.57,0-3.84-2.28-3.84-3.85V5.11Z"/></g><path class="cls-4" d="M33.19,11.26,22.6.67a1.43,1.43,0,0,0-1-.42A1.46,1.46,0,0,0,21,.36a1.43,1.43,0,0,0-.9,1.34V12.28a1.45,1.45,0,0,0,1.45,1.45H32.17a1.45,1.45,0,0,0,1-2.47Z"/><path class="cls-5" d="M20.09,17.19a3,3,0,0,1-3.34-3.35V.61H2.22a2,2,0,0,0-2,2V39.42a2,2,0,0,0,2,2H31.36a2,2,0,0,0,2-2V17.19Z"/><line class="cls-6" x1="8.87" y1="22.6" x2="24.7" y2="22.6"/><line class="cls-6" x1="8.87" y1="28.94" x2="24.7" y2="28.94"/><line class="cls-6" x1="8.87" y1="34.81" x2="17.91" y2="34.81"/><line class="cls-7" x1="8.87" y1="22.6" x2="24.7" y2="22.6"/><line class="cls-7" x1="8.87" y1="28.94" x2="24.7" y2="28.94"/><line class="cls-7" x1="8.87" y1="34.81" x2="17.91" y2="34.81"/><text class="cls-8" transform="translate(3.59 13.85)">P</text><text class="cls-9" transform="translate(3.59 13.85)">P</text></g></g></svg>